<?xml version="1.0" encoding="UTF-8"?>
<svg id="_레이어_1" data-name="레이어 1" xmlns="http://www.w3.org/2000/svg" viewBox="0 0 600 600">
  <defs>
    <style>
      .cls-1 {
        fill: #fff100;
      }
    </style>
  </defs>
  <path class="cls-1" d="M300,281.98c-9.94,0-18,8.06-18,18,0,9.94,8.06,18,18,18,9.94,0,18-8.06,18-18,0-9.94-8.06-18-18-18ZM300,304.48c-2.49,0-4.5-2.01-4.5-4.5,0-2.49,2.01-4.5,4.5-4.5s4.5,2.01,4.5,4.5-2.01,4.5-4.5,4.5Z"/>
  <rect class="cls-1" x="290" y="280.48" width="20" height="15"/>
  <polygon class="cls-1" points="310 281.95 290 281.95 271 191.95 329 191.95 310 281.95"/>
  <polygon class="cls-1" points="300 141.98 271 191.98 329 191.98 300 141.98"/>
</svg>