<?xml version="1.0" encoding="UTF-8"?>
<svg id="_레이어_3" data-name="레이어 3" xmlns="http://www.w3.org/2000/svg" viewBox="0 0 600 600">
  <defs>
    <style>
      .cls-1 {
        fill: #ff0;
      }
    </style>
  </defs>
  <path class="cls-1" d="M317.96,300c0-7.5-4.6-13.92-11.12-16.61l6.13-13.4v-82.27s-25.95,0-25.95,0v82.27s6.13,13.4,6.13,13.4c-6.53,2.69-11.12,9.11-11.12,16.61,0,9.92,8.04,17.96,17.96,17.96,9.92,0,17.96-8.04,17.96-17.96ZM300,304.49c-2.48,0-4.49-2.01-4.49-4.49,0-2.48,2.01-4.49,4.49-4.49,2.48,0,4.49,2.01,4.49,4.49,0,2.48-2.01,4.49-4.49,4.49Z"/>
</svg>