<?xml version="1.0" encoding="UTF-8"?>
<svg id="_레이어_3" data-name="레이어 3" xmlns="http://www.w3.org/2000/svg" viewBox="0 0 600 600">
  <defs>
    <style>
      .cls-1 {
        fill: black;
      }
    </style>
  </defs>
  <path class="cls-1" d="M290.02,134.08v135.98s3.99,15.26,3.99,15.26v.96c-5.29,2.31-8.98,7.58-8.98,13.72,0,8.27,6.7,14.97,14.97,14.97,8.27,0,14.97-6.7,14.97-14.97,0-6.14-3.7-11.41-8.98-13.72v-.96s3.99-15.26,3.99-15.26v-135.98s-9.98-32.44-9.98-32.44l-9.98,32.44ZM304.49,300c0,2.48-2.01,4.49-4.49,4.49s-4.49-2.01-4.49-4.49c0-2.47,2-4.48,4.47-4.49h.04c2.47.01,4.47,2.02,4.47,4.49Z"/>
</svg>