<?xml version="1.0" encoding="UTF-8"?>
<svg id="_레이어_3" data-name="레이어 3" xmlns="http://www.w3.org/2000/svg" viewBox="0 0 600 600">
  <defs>
    <style>
      .cls-1 {
        fill: black;
      }
    </style>
  </defs>
  <path class="cls-1" d="M313.47,300c0-6.76-4.99-12.34-11.48-13.31V72.95h-3.99v213.74c-6.49.97-11.48,6.55-11.48,13.31s4.99,12.34,11.48,13.31v47.25c-1.72,1.18-2.92,3.78-2.92,6.81,0,4.13,2.23,7.49,4.99,7.49s4.99-3.35,4.99-7.49c0-3.11-1.26-5.77-3.06-6.91v-47.15c6.49-.97,11.48-6.55,11.48-13.31ZM295.51,300c0-2.48,2.01-4.49,4.49-4.49s4.49,2.01,4.49,4.49-2.01,4.49-4.49,4.49-4.49-2.01-4.49-4.49Z"/>
</svg>