<?xml version="1.0" encoding="UTF-8"?>
<svg id="_레이어_3" data-name="레이어 3" xmlns="http://www.w3.org/2000/svg" viewBox="0 0 600 600">
  <defs>
    <style>
      .cls-1 {
        fill: black;
      }
    </style>
  </defs>
  <path class="cls-1" d="M305.49,349.9v-32.8c7.24-2.32,12.47-9.1,12.48-17.1,0-8.01-5.24-14.78-12.48-17.1v-132.6s-10.98,0-10.98,0v132.6c-7.23,2.32-12.47,9.1-12.47,17.1,0,8.01,5.24,14.78,12.47,17.1v32.8s10.98,0,10.98,0ZM295.51,300c0-2.48,2.01-4.49,4.49-4.49,2.48,0,4.49,2.01,4.49,4.49,0,2.48-2.01,4.49-4.49,4.49-2.48,0-4.49-2.01-4.49-4.49Z"/>
</svg>