<svg width="300" height="300" viewBox="0 0 300 300" fill="none" xmlns="http://www.w3.org/2000/svg">
<path fill-rule="evenodd" clip-rule="evenodd" d="M0 150C0 67.1573 67.1573 0 150 0C232.843 0 300 67.1573 300 150C300 232.843 232.843 300 150 300C67.1573 300 0 232.843 0 150ZM148.022 189.157L185.449 153.122C189.551 149.021 192.725 145.676 194.971 143.088C197.217 140.451 198.926 137.839 200.098 135.251C201.27 132.663 201.855 129.929 201.855 127.048C201.855 123.874 201.05 121.066 199.438 118.625C197.827 116.184 195.654 114.304 192.92 112.985C190.186 111.618 187.061 110.935 183.545 110.935C180.029 110.935 176.904 111.667 174.17 113.132C171.436 114.548 169.336 116.599 167.871 119.284C166.406 121.97 165.674 125.07 165.674 128.586H147.583C147.583 121.994 149.121 116.208 152.197 111.228C155.273 106.198 159.546 102.316 165.015 99.582C170.532 96.8477 176.807 95.4805 183.838 95.4805C190.967 95.4805 197.266 96.7988 202.734 99.4355C208.203 102.072 212.451 105.71 215.479 110.349C218.555 114.987 220.093 120.261 220.093 126.169C220.093 130.271 219.312 134.226 217.749 138.034C216.187 141.843 213.501 146.042 209.692 150.632C205.933 155.222 200.537 160.837 193.506 167.478L174.609 186.228V187.033H221.704V203H148.096L148.022 189.157ZM103.052 203H122.241V96.9453H103.931L77.6367 113.938V131.442L102.466 115.549H103.052V203Z" fill="#00FF00"/>
</svg>
