<?xml version="1.0" encoding="UTF-8"?>
<svg id="_레이어_3" data-name="레이어 3" xmlns="http://www.w3.org/2000/svg" viewBox="0 0 600 600">
  <defs>
    <style>
      .cls-1 {
        fill: black;
      }
    </style>
  </defs>
  <path class="cls-1" d="M307.83,283.85l7.14-117.08c-2.34-2.3-5.01-5.42-7.36-9.48-5.44-9.39-6.12-23.45-6.12-23.45h-2.99s-.68,14.06-6.12,23.45c-2.35,4.06-5.02,7.18-7.36,9.48l7.14,117.08c-5.99,2.91-10.13,9.04-10.13,16.15,0,9.92,8.04,17.96,17.96,17.96s17.96-8.04,17.96-17.96c0-7.11-4.14-13.24-10.13-16.15ZM300,304.49c-2.48,0-4.49-2.01-4.49-4.49s2.01-4.49,4.49-4.49,4.49,2.01,4.49,4.49-2.01,4.49-4.49,4.49Z"/>
</svg>