<?xml version="1.0" encoding="UTF-8"?>
<svg id="_레이어_3" data-name="레이어 3" xmlns="http://www.w3.org/2000/svg" viewBox="0 0 600 600">
  <defs>
    <style>
      .cls-1 {
        fill: black;
      }
    </style>
  </defs>
  <path class="cls-1" d="M307.67,287.15l5.8-169.3c-2.33-2.51-5.09-6.04-7.39-10.71-4.48-9.1-4.59-22.22-4.59-22.22h-2.99s-.1,13.12-4.59,22.22c-2.3,4.67-5.06,8.2-7.39,10.71l5.8,169.3c-4.37,2.61-7.3,7.38-7.3,12.84,0,8.27,6.7,14.97,14.97,14.97s14.97-6.7,14.97-14.97c0-5.46-2.93-10.22-7.3-12.84ZM300,304.49c-2.48,0-4.49-2.01-4.49-4.49s2.01-4.49,4.49-4.49,4.49,2.01,4.49,4.49-2.01,4.49-4.49,4.49Z"/>
</svg>