<?xml version="1.0" encoding="UTF-8"?>
<svg id="_레이어_3" data-name="레이어 3" xmlns="http://www.w3.org/2000/svg" viewBox="0 0 600 600">
  <defs>
    <style>
      .cls-1 {
        fill: white;
      }
    </style>
  </defs>
  <path class="cls-1" d="M302.99,364.79v-51.67c6-1.36,10.48-6.72,10.48-13.13s-4.48-11.76-10.48-13.13V117.78h5.49l-7.98-44.82h-1l-7.98,44.82h5.49v169.1c-6,1.36-10.48,6.72-10.48,13.13s4.48,11.77,10.48,13.13v51.67c-4.61,1.3-7.98,5.53-7.98,10.55,0,6.06,4.92,10.98,10.98,10.98s10.98-4.92,10.98-10.98c0-5.02-3.38-9.25-7.98-10.55ZM295.51,300c0-2.48,2.01-4.49,4.49-4.49s4.49,2.01,4.49,4.49-2.01,4.49-4.49,4.49-4.49-2.01-4.49-4.49Z"/>
</svg>