<?xml version="1.0" encoding="UTF-8"?>
<svg id="_레이어_3" data-name="레이어 3" xmlns="http://www.w3.org/2000/svg" viewBox="0 0 600 600">
  <defs>
    <style>
      .cls-1 {
        fill: white;
      }
    </style>
  </defs>
  <path class="cls-1" d="M317.96,300c0-6.44-3.4-12.07-8.48-15.24v-33.85c10.48-3.86,17.96-13.94,17.96-25.76,0-11.86-7.52-21.96-18.06-25.8l-9.39-39.03-9.39,39.03c-10.54,3.83-18.06,13.94-18.06,25.8,0,11.83,7.48,21.9,17.96,25.76v33.85c-5.09,3.17-8.48,8.8-8.48,15.24,0,9.92,8.04,17.96,17.96,17.96,9.92,0,17.96-8.04,17.96-17.96ZM300,304.49c-2.48,0-4.49-2.01-4.49-4.49,0-2.48,2.01-4.49,4.49-4.49s4.49,2.01,4.49,4.49c0,2.48-2.01,4.49-4.49,4.49Z"/>
</svg>