<?xml version="1.0" encoding="UTF-8"?>
<svg id="_레이어_3" data-name="레이어 3" xmlns="http://www.w3.org/2000/svg" viewBox="0 0 600 600">
  <defs>
    <style>
      .cls-1 {
        fill: #ff0;
      }
    </style>
  </defs>
  <path class="cls-1" d="M313.47,300c0-6.76-4.99-12.34-11.48-13.31v-103.36c7.04-.97,12.48-7,12.48-14.32s-5.43-13.34-12.48-14.32v-87.73h-3.99v87.73c-7.04.97-12.48,7-12.48,14.32s5.43,13.34,12.48,14.32v103.36c-6.49.97-11.48,6.55-11.48,13.31s4.99,12.34,11.48,13.31v51.76c-4.56.92-7.98,4.95-7.98,9.78,0,5.51,4.47,9.98,9.98,9.98s9.98-4.47,9.98-9.98c0-4.83-3.43-8.85-7.98-9.78v-51.76c6.49-.97,11.48-6.55,11.48-13.31ZM295.51,300c0-2.48,2.01-4.49,4.49-4.49s4.49,2.01,4.49,4.49-2.01,4.49-4.49,4.49-4.49-2.01-4.49-4.49Z"/>
</svg>