<?xml version="1.0" encoding="UTF-8"?>
<svg id="_레이어_3" data-name="레이어 3" xmlns="http://www.w3.org/2000/svg" viewBox="0 0 600 600">
  <defs>
    <style>
      .cls-1 {
        fill: black;
      }
    </style>
  </defs>
  <path class="cls-1" d="M317.96,300c0-7.35-4.41-13.65-10.73-16.44v-114.55s-7.24-18.71-7.24-18.71l-7.24,18.71v114.55c-6.31,2.78-10.73,9.09-10.73,16.44,0,9.92,8.04,17.96,17.96,17.96,9.92,0,17.96-8.04,17.96-17.96ZM300,304.49c-2.48,0-4.49-2.01-4.49-4.49,0-2.48,2.01-4.49,4.49-4.49h0c2.48,0,4.49,2.01,4.49,4.49,0,2.48-2.01,4.49-4.49,4.49Z"/>
</svg>