<?xml version="1.0" encoding="UTF-8"?>
<svg id="_레이어_3" data-name="레이어 3" xmlns="http://www.w3.org/2000/svg" viewBox="0 0 600 600">
  <defs>
    <style>
      .cls-1 {
        fill: white;
      }

      .cls-2 {
        fill: black;
      }
    </style>
  </defs>
  <circle class="cls-1" cx="300" cy="300" r="250"/>
  <g>
    <rect class="cls-2" x="295.01" y="72.95" width="9.98" height="54.89"/>
    <rect class="cls-2" x="295.01" y="472.16" width="9.98" height="54.89"/>
    <circle class="cls-2" cx="311.48" cy="122.85" r="4.99"/>
    <circle class="cls-2" cx="288.52" cy="122.85" r="4.99"/>
    <rect class="cls-2" x="494.61" y="272.55" width="9.98" height="54.89" transform="translate(799.6 -199.6) rotate(90)"/>
    <rect class="cls-2" x="95.41" y="272.55" width="9.98" height="54.89" transform="translate(400.4 199.6) rotate(90)"/>
    <rect class="cls-2" x="467.87" y="372.36" width="9.98" height="54.89" transform="translate(1055.53 190.19) rotate(120)"/>
    <rect class="cls-2" x="122.15" y="172.75" width="9.98" height="54.89" transform="translate(364.09 190.19) rotate(120)"/>
    <rect class="cls-2" x="394.81" y="445.41" width="9.98" height="54.89" transform="translate(982.47 682.47) rotate(150)"/>
    <rect class="cls-2" x="195.21" y="99.7" width="9.98" height="54.89" transform="translate(437.15 137.15) rotate(150)"/>
    <rect class="cls-2" x="394.81" y="99.7" width="9.98" height="54.89" transform="translate(117.13 -182.87) rotate(30)"/>
    <rect class="cls-2" x="195.21" y="445.41" width="9.98" height="54.89" transform="translate(263.25 -36.75) rotate(30)"/>
    <rect class="cls-2" x="467.87" y="172.75" width="9.98" height="54.89" transform="translate(409.81 -309.41) rotate(60)"/>
    <rect class="cls-2" x="122.15" y="372.36" width="9.98" height="54.89" transform="translate(409.81 89.79) rotate(60)"/>
  </g>
  <g>
    <rect class="cls-2" x="276.86" y="61.67" width="1" height="45.91" transform="translate(-7.33 29.45) rotate(-6)"/>
    <rect class="cls-2" x="322.14" y="492.43" width="1" height="45.91" transform="translate(-52.1 36.55) rotate(-6)"/>
    <rect class="cls-2" x="254.47" y="65.21" width="1" height="45.91" transform="translate(-12.76 54.94) rotate(-12)"/>
    <rect class="cls-2" x="344.53" y="488.88" width="1" height="45.91" transform="translate(-98.88 82.92) rotate(-12)"/>
    <rect class="cls-2" x="232.58" y="71.08" width="1" height="45.91" transform="translate(-17.65 76.63) rotate(-18)"/>
    <rect class="cls-2" x="366.42" y="483.01" width="1" height="45.91" transform="translate(-138.39 138.15) rotate(-18)"/>
    <rect class="cls-2" x="211.42" y="79.2" width="1" height="45.91" transform="translate(-23.23 95.02) rotate(-24)"/>
    <rect class="cls-2" x="387.59" y="474.89" width="1" height="45.91" transform="translate(-168.94 200.89) rotate(-24)"/>
    <rect class="cls-2" x="299.68" y="84.12" width="45.91" height="1" transform="translate(204.45 396.53) rotate(-83.94)"/>
    <rect class="cls-2" x="254.41" y="514.88" width="45.91" height="1" transform="translate(-264.4 736.82) rotate(-83.94)"/>
    <rect class="cls-2" x="322.07" y="87.67" width="45.91" height="1" transform="translate(187.35 407.47) rotate(-78.05)"/>
    <rect class="cls-2" x="232.02" y="511.34" width="45.91" height="1" transform="translate(-298.55 655.34) rotate(-78.05)"/>
    <rect class="cls-2" x="343.97" y="93.53" width="45.91" height="1" transform="translate(164.25 414.03) rotate(-72.03)"/>
    <rect class="cls-2" x="210.12" y="505.47" width="45.91" height="1" transform="translate(-320.12 571.53) rotate(-72.03)"/>
    <rect class="cls-2" x="365.13" y="101.66" width="45.91" height="1" transform="translate(136.99 415.2) rotate(-66.01)"/>
    <rect class="cls-2" x="188.96" y="497.34" width="45.91" height="1" transform="translate(-329.08 489.09) rotate(-66.01)"/>
    <rect class="cls-2" x="61.67" y="322.14" width="45.91" height="1" transform="translate(-33.26 10.61) rotate(-6)"/>
    <rect class="cls-2" x="492.43" y="276.86" width="45.91" height="1" transform="translate(-26.17 55.39) rotate(-6)"/>
    <rect class="cls-2" x="65.21" y="344.53" width="45.91" height="1" transform="translate(-69.81 25.87) rotate(-12)"/>
    <rect class="cls-2" x="488.88" y="254.47" width="45.91" height="1" transform="translate(-41.83 112) rotate(-12)"/>
    <rect class="cls-2" x="71.08" y="366.42" width="45.91" height="1" transform="translate(-108.64 46.93) rotate(-17.97)"/>
    <rect class="cls-2" x="483.01" y="232.58" width="45.91" height="1" transform="translate(-47.23 167.52) rotate(-17.97)"/>
    <rect class="cls-2" x="79.2" y="387.59" width="45.91" height="1" transform="translate(-148.95 75.05) rotate(-23.99)"/>
    <rect class="cls-2" x="474.89" y="211.41" width="45.91" height="1" transform="translate(-43.15 220.94) rotate(-24.01)"/>
    <rect class="cls-2" x="84.12" y="254.41" width="1" height="45.91" transform="translate(-200.07 332.52) rotate(-84)"/>
    <rect class="cls-2" x="514.88" y="299.68" width="1" height="45.91" transform="translate(140.64 801.47) rotate(-84)"/>
    <rect class="cls-2" x="87.67" y="232.02" width="1" height="45.91" transform="translate(-179.57 288.2) rotate(-78)"/>
    <rect class="cls-2" x="511.34" y="322.07" width="1" height="45.91" transform="translate(67.93 773.94) rotate(-78)"/>
    <rect class="cls-2" x="93.53" y="210.12" width="1" height="45.91" transform="translate(-156.69 250.48) rotate(-72)"/>
    <rect class="cls-2" x="505.47" y="343.97" width="1" height="45.91" transform="translate(.65 734.74) rotate(-72)"/>
    <rect class="cls-2" x="101.66" y="188.96" width="1" height="45.91" transform="translate(-132.99 219.04) rotate(-66)"/>
    <rect class="cls-2" x="497.34" y="365.13" width="1" height="45.91" transform="translate(-59.18 685.04) rotate(-66)"/>
    <rect class="cls-2" x="124.29" y="149.75" width="1" height="45.91" transform="translate(-88.28 172.15) rotate(-54)"/>
    <rect class="cls-2" x="474.71" y="404.34" width="1" height="45.91" transform="translate(-149.8 560.59) rotate(-54)"/>
    <rect class="cls-2" x="138.56" y="132.13" width="1" height="45.91" transform="translate(-69.24 154.65) rotate(-48)"/>
    <rect class="cls-2" x="460.44" y="421.96" width="1" height="45.91" transform="translate(-178.12 489.75) rotate(-48)"/>
    <rect class="cls-2" x="154.59" y="116.11" width="1" height="45.91" transform="translate(-53.21 139.49) rotate(-42)"/>
    <rect class="cls-2" x="444.41" y="437.99" width="1" height="45.91" transform="translate(-194.15 416.1) rotate(-42)"/>
    <rect class="cls-2" x="172.21" y="101.84" width="1" height="45.91" transform="translate(-40.37 125.35) rotate(-36)"/>
    <rect class="cls-2" x="426.8" y="452.25" width="1" height="45.91" transform="translate(-197.71 341.91) rotate(-36)"/>
    <rect class="cls-2" x="404.34" y="124.29" width="45.91" height="1" transform="translate(75.09 397.01) rotate(-53.98)"/>
    <rect class="cls-2" x="149.75" y="474.71" width="45.91" height="1" transform="translate(-313.21 335.45) rotate(-53.98)"/>
    <rect class="cls-2" x="421.96" y="138.56" width="45.91" height="1" transform="translate(43.73 376.41) rotate(-47.97)"/>
    <rect class="cls-2" x="132.13" y="460.44" width="45.91" height="1" transform="translate(-291.12 267.51) rotate(-47.97)"/>
    <rect class="cls-2" x="437.99" y="154.59" width="45.91" height="1" transform="translate(14.72 348.49) rotate(-42.03)"/>
    <rect class="cls-2" x="116.11" y="444.41" width="45.91" height="1" transform="translate(-262.11 207.53) rotate(-42.03)"/>
    <rect class="cls-2" x="452.25" y="172.21" width="45.91" height="1" transform="translate(-10.71 312.47) rotate(-36.02)"/>
    <rect class="cls-2" x="101.84" y="426.8" width="45.91" height="1" transform="translate(-227.42 155.08) rotate(-36.02)"/>
    <rect class="cls-2" x="298.5" y="60.48" width="2.99" height="10.98"/>
    <rect class="cls-2" x="298.5" y="528.54" width="2.99" height="10.98"/>
    <rect class="cls-2" x="411.53" y="95.83" width="10.98" height="2.99" transform="translate(124.2 409.79) rotate(-60)"/>
    <rect class="cls-2" x="177.49" y="501.18" width="10.98" height="2.99" transform="translate(-343.83 409.77) rotate(-60)"/>
    <rect class="cls-2" x="497.19" y="181.49" width="10.98" height="2.99" transform="translate(-24.14 275.89) rotate(-30)"/>
    <rect class="cls-2" x="91.83" y="415.52" width="10.98" height="2.99" transform="translate(-195.49 104.55) rotate(-30)"/>
    <rect class="cls-2" x="528.54" y="298.5" width="10.98" height="2.99"/>
    <rect class="cls-2" x="60.48" y="298.5" width="10.98" height="2.99"/>
    <rect class="cls-2" x="501.18" y="411.53" width="2.99" height="10.98" transform="translate(-109.81 643.84) rotate(-60)"/>
    <rect class="cls-2" x="95.83" y="177.49" width="2.99" height="10.98" transform="translate(-109.81 175.78) rotate(-60)"/>
    <rect class="cls-2" x="415.52" y="497.19" width="2.99" height="10.98" transform="translate(-195.47 275.85) rotate(-30)"/>
    <rect class="cls-2" x="181.49" y="91.83" width="2.99" height="10.98" transform="translate(-24.15 104.53) rotate(-30)"/>
    <rect class="cls-2" x="294.6" y="60.53" width="1" height="10.98" transform="translate(-1.32 6.2) rotate(-1.2)"/>
    <rect class="cls-2" x="304.4" y="528.49" width="1" height="10.98" transform="translate(-11.12 6.51) rotate(-1.2)"/>
    <rect class="cls-2" x="289.7" y="60.68" width="1" height="10.98" transform="translate(-2.52 12.21) rotate(-2.4)"/>
    <rect class="cls-2" x="309.3" y="528.34" width="1" height="10.98" transform="translate(-22.07 13.43) rotate(-2.4)"/>
    <rect class="cls-2" x="284.81" y="60.94" width="1" height="10.98" transform="translate(-3.61 18.04) rotate(-3.6)"/>
    <rect class="cls-2" x="314.2" y="528.08" width="1" height="10.98" transform="translate(-32.87 20.8) rotate(-3.6)"/>
    <rect class="cls-2" x="279.92" y="61.3" width="1" height="10.98" transform="translate(-4.6 23.7) rotate(-4.8)"/>
    <rect class="cls-2" x="319.08" y="527.72" width="1" height="10.98" transform="translate(-43.5 28.61) rotate(-4.8)"/>
    <rect class="cls-2" x="270.17" y="62.32" width="1" height="10.98" transform="translate(-6.37 34.46) rotate(-7.2)"/>
    <rect class="cls-2" x="328.83" y="526.7" width="1" height="10.98" transform="translate(-64.12 45.48) rotate(-7.2)"/>
    <rect class="cls-2" x="265.31" y="62.99" width="1" height="10.98" transform="translate(-7.15 39.57) rotate(-8.4)"/>
    <rect class="cls-2" x="333.69" y="526.03" width="1" height="10.98" transform="translate(-74.06 54.52) rotate(-8.4)"/>
    <rect class="cls-2" x="260.47" y="63.76" width="1" height="10.98" transform="translate(-7.89 44.49) rotate(-9.6)"/>
    <rect class="cls-2" x="338.53" y="525.27" width="1" height="10.98" transform="translate(-83.77 63.97) rotate(-9.6)"/>
    <rect class="cls-2" x="255.65" y="64.62" width="1" height="10.98" transform="translate(-8.6 49.23) rotate(-10.8)"/>
    <rect class="cls-2" x="343.35" y="524.4" width="1" height="10.98" transform="translate(-93.19 73.81) rotate(-10.8)"/>
    <rect class="cls-2" x="246.06" y="66.66" width="1" height="10.98" transform="translate(-9.96 58.2) rotate(-13.2)"/>
    <rect class="cls-2" x="352.94" y="522.36" width="1" height="10.98" transform="translate(-111.19 94.64) rotate(-13.2)"/>
    <rect class="cls-2" x="241.3" y="67.83" width="1" height="10.98" transform="translate(-10.64 62.43) rotate(-14.4)"/>
    <rect class="cls-2" x="357.7" y="521.19" width="1" height="10.98" transform="translate(-119.72 105.62) rotate(-14.4)"/>
    <rect class="cls-2" x="236.56" y="69.1" width="1" height="10.98" transform="translate(-11.33 66.5) rotate(-15.6)"/>
    <rect class="cls-2" x="362.44" y="519.92" width="1" height="10.98" transform="translate(-127.92 116.95) rotate(-15.6)"/>
    <rect class="cls-2" x="231.86" y="70.47" width="1" height="10.98" transform="translate(-12.04 70.39) rotate(-16.8)"/>
    <rect class="cls-2" x="367.14" y="518.55" width="1" height="10.98" transform="translate(-135.77 128.62) rotate(-16.8)"/>
    <rect class="cls-2" x="222.54" y="73.5" width="1" height="10.98" transform="translate(-13.57 77.74) rotate(-19.2)"/>
    <rect class="cls-2" x="376.47" y="515.53" width="1" height="10.98" transform="translate(-150.39 152.97) rotate(-19.2)"/>
    <rect class="cls-2" x="217.92" y="75.16" width="1" height="10.98" transform="translate(-14.41 81.19) rotate(-20.4)"/>
    <rect class="cls-2" x="381.08" y="513.87" width="1" height="10.98" transform="translate(-157.1 165.57) rotate(-20.4)"/>
    <rect class="cls-2" x="213.35" y="76.91" width="1" height="10.98" transform="translate(-15.32 84.51) rotate(-21.6)"/>
    <rect class="cls-2" x="385.65" y="512.11" width="1" height="10.98" transform="translate(-163.42 178.5) rotate(-21.6)"/>
    <rect class="cls-2" x="208.81" y="78.77" width="1" height="10.98" transform="translate(-16.3 87.69) rotate(-22.8)"/>
    <rect class="cls-2" x="390.19" y="510.26" width="1" height="10.98" transform="translate(-169.33 191.7) rotate(-22.8)"/>
    <rect class="cls-2" x="199.85" y="82.75" width="1" height="10.98" transform="translate(-18.5 93.71) rotate(-25.2)"/>
    <rect class="cls-2" x="399.15" y="506.27" width="1" height="10.98" transform="translate(-179.86 218.87) rotate(-25.2)"/>
    <rect class="cls-2" x="195.44" y="84.89" width="1" height="10.98" transform="translate(-19.75 96.54) rotate(-26.4)"/>
    <rect class="cls-2" x="403.56" y="504.14" width="1" height="10.98" transform="translate(-184.45 232.8) rotate(-26.4)"/>
    <rect class="cls-2" x="191.08" y="87.11" width="1" height="10.98" transform="translate(-21.1 99.3) rotate(-27.6)"/>
    <rect class="cls-2" x="407.93" y="501.91" width="1" height="10.98" transform="translate(-188.61 246.99) rotate(-27.6)"/>
    <rect class="cls-2" x="186.76" y="89.43" width="1" height="10.98" transform="translate(-22.56 101.95) rotate(-28.8)"/>
    <rect class="cls-2" x="412.25" y="499.59" width="1" height="10.98" transform="translate(-192.27 261.31) rotate(-28.8)"/>
    <rect class="cls-2" x="178.27" y="94.33" width="1" height="10.98" transform="translate(-25.85 107.04) rotate(-31.2)"/>
    <rect class="cls-2" x="420.74" y="494.69" width="1" height="10.98" transform="translate(-198.19 290.58) rotate(-31.2)"/>
    <rect class="cls-2" x="174.1" y="96.91" width="1" height="10.98" transform="translate(-27.69 109.49) rotate(-32.4)"/>
    <rect class="cls-2" x="424.9" y="492.11" width="1" height="10.98" transform="translate(-200.41 305.42) rotate(-32.4)"/>
    <rect class="cls-2" x="169.99" y="99.58" width="1" height="10.98" transform="translate(-29.66 111.89) rotate(-33.6)"/>
    <rect class="cls-2" x="429.01" y="489.44" width="1" height="10.98" transform="translate(-202.12 320.36) rotate(-33.6)"/>
    <rect class="cls-2" x="165.94" y="102.34" width="1" height="10.98" transform="translate(-31.77 114.28) rotate(-34.8)"/>
    <rect class="cls-2" x="433.07" y="486.69" width="1" height="10.98" transform="translate(-203.35 335.47) rotate(-34.8)"/>
    <rect class="cls-2" x="158.01" y="108.1" width="1" height="10.98" transform="translate(-36.42 118.95) rotate(-37.2)"/>
    <rect class="cls-2" x="441" y="480.92" width="1" height="10.98" transform="translate(-204.26 365.92) rotate(-37.2)"/>
    <rect class="cls-2" x="154.13" y="111.1" width="1" height="10.98" transform="translate(-38.97 121.27) rotate(-38.4)"/>
    <rect class="cls-2" x="444.87" y="477.92" width="1" height="10.98" transform="translate(-203.93 381.18) rotate(-38.4)"/>
    <rect class="cls-2" x="150.32" y="114.19" width="1" height="10.98" transform="translate(-41.67 123.6) rotate(-39.6)"/>
    <rect class="cls-2" x="448.68" y="474.84" width="1" height="10.98" transform="translate(-203.09 396.55) rotate(-39.6)"/>
    <rect class="cls-2" x="146.58" y="117.35" width="1" height="10.98" transform="translate(-44.52 125.96) rotate(-40.8)"/>
    <rect class="cls-2" x="452.42" y="471.67" width="1" height="10.98" transform="translate(-201.73 411.91) rotate(-40.8)"/>
    <rect class="cls-2" x="139.3" y="123.91" width="1" height="10.98" transform="translate(-50.69 130.77) rotate(-43.2)"/>
    <rect class="cls-2" x="459.71" y="465.11" width="1" height="10.98" transform="translate(-197.42 442.64) rotate(-43.2)"/>
    <rect class="cls-2" x="135.76" y="127.3" width="1" height="10.98" transform="translate(-54 133.25) rotate(-44.4)"/>
    <rect class="cls-2" x="463.24" y="461.72" width="1" height="10.98" transform="translate(-194.48 457.86) rotate(-44.4)"/>
    <rect class="cls-2" x="132.29" y="130.77" width="1" height="10.98" transform="translate(-57.47 135.8) rotate(-45.6)"/>
    <rect class="cls-2" x="466.71" y="458.25" width="1" height="10.98" transform="translate(-191.01 473.1) rotate(-45.6)"/>
    <rect class="cls-2" x="128.9" y="134.31" width="1" height="10.98" transform="translate(-61.09 138.42) rotate(-46.8)"/>
    <rect class="cls-2" x="470.1" y="454.72" width="1" height="10.98" transform="translate(-187.02 488.21) rotate(-46.8)"/>
    <rect class="cls-2" x="122.34" y="141.59" width="1" height="10.98" transform="translate(-68.76 143.96) rotate(-49.2)"/>
    <rect class="cls-2" x="476.66" y="447.43" width="1" height="10.98" transform="translate(-177.49 518.18) rotate(-49.2)"/>
    <rect class="cls-2" x="119.18" y="145.33" width="1" height="10.98" transform="translate(-72.82 146.89) rotate(-50.4)"/>
    <rect class="cls-2" x="479.83" y="443.69" width="1" height="10.98" transform="translate(-171.94 532.95) rotate(-50.4)"/>
    <rect class="cls-2" x="116.09" y="149.14" width="1" height="10.98" transform="translate(-77.01 149.95) rotate(-51.6)"/>
    <rect class="cls-2" x="482.91" y="439.88" width="1" height="10.98" transform="translate(-165.89 547.6) rotate(-51.6)"/>
    <rect class="cls-2" x="113.09" y="153.02" width="1" height="10.98" transform="translate(-81.34 153.15) rotate(-52.8)"/>
    <rect class="cls-2" x="485.91" y="436.01" width="1" height="10.98" transform="translate(-159.33 562.03) rotate(-52.8)"/>
    <rect class="cls-2" x="107.33" y="160.95" width="1" height="10.98" transform="translate(-90.38 160) rotate(-55.2)"/>
    <rect class="cls-2" x="491.68" y="428.08" width="1" height="10.98" transform="translate(-144.74 590.25) rotate(-55.2)"/>
    <rect class="cls-2" x="104.57" y="165" width="1" height="10.98" transform="translate(-95.08 163.66) rotate(-56.4)"/>
    <rect class="cls-2" x="494.43" y="424.02" width="1" height="10.98" transform="translate(-136.7 604.08) rotate(-56.4)"/>
    <rect class="cls-2" x="101.9" y="169.11" width="1" height="10.98" transform="translate(-99.89 167.5) rotate(-57.6)"/>
    <rect class="cls-2" x="497.1" y="419.91" width="1" height="10.98" transform="translate(-128.21 617.58) rotate(-57.6)"/>
    <rect class="cls-2" x="99.32" y="173.28" width="1" height="10.98" transform="translate(-104.8 171.54) rotate(-58.8)"/>
    <rect class="cls-2" x="499.68" y="415.75" width="1" height="10.98" transform="translate(-119.23 630.87) rotate(-58.8)"/>
    <rect class="cls-2" x="94.42" y="181.77" width="1" height="10.98" transform="translate(-114.9 180.21) rotate(-61.2)"/>
    <rect class="cls-2" x="504.58" y="407.26" width="1" height="10.98" transform="translate(-99.95 656.48) rotate(-61.2)"/>
    <rect class="cls-2" x="92.1" y="186.09" width="1" height="10.98" transform="translate(-120.08 184.89) rotate(-62.4)"/>
    <rect class="cls-2" x="506.9" y="402.94" width="1" height="10.98" transform="translate(-89.64 668.84) rotate(-62.4)"/>
    <rect class="cls-2" x="89.88" y="190.45" width="1" height="10.98" transform="translate(-125.32 189.77) rotate(-63.6)"/>
    <rect class="cls-2" x="509.13" y="398.57" width="1" height="10.98" transform="translate(-78.89 680.89) rotate(-63.6)"/>
    <rect class="cls-2" x="87.74" y="194.87" width="1" height="10.98" transform="translate(-130.62 194.89) rotate(-64.8)"/>
    <rect class="cls-2" x="511.26" y="394.16" width="1" height="10.98" transform="translate(-67.75 692.54) rotate(-64.8)"/>
    <rect class="cls-2" x="83.76" y="203.82" width="1" height="10.98" transform="translate(-141.35 205.87) rotate(-67.2)"/>
    <rect class="cls-2" x="515.25" y="385.2" width="1" height="10.98" transform="translate(-44.28 714.73) rotate(-67.2)"/>
    <rect class="cls-2" x="81.9" y="208.36" width="1" height="10.98" transform="translate(-146.76 211.73) rotate(-68.4)"/>
    <rect class="cls-2" x="517.1" y="380.66" width="1" height="10.98" transform="translate(-31.96 725.28) rotate(-68.4)"/>
    <rect class="cls-2" x="80.15" y="212.93" width="1" height="10.98" transform="translate(-152.19 217.86) rotate(-69.6)"/>
    <rect class="cls-2" x="518.85" y="376.09" width="1" height="10.98" transform="translate(-19.31 735.36) rotate(-69.6)"/>
    <rect class="cls-2" x="78.49" y="217.55" width="1" height="10.98" transform="translate(-157.62 224.29) rotate(-70.8)"/>
    <rect class="cls-2" x="520.51" y="371.48" width="1" height="10.98" transform="translate(-6.32 745.04) rotate(-70.8)"/>
    <rect class="cls-2" x="75.46" y="226.87" width="1" height="10.98" transform="translate(-168.44 237.93) rotate(-73.2)"/>
    <rect class="cls-2" x="523.54" y="362.15" width="1" height="10.98" transform="translate(20.65 763.09) rotate(-73.2)"/>
    <rect class="cls-2" x="74.09" y="231.58" width="1" height="10.98" transform="translate(-173.8 245.16) rotate(-74.4)"/>
    <rect class="cls-2" x="524.91" y="357.45" width="1" height="10.98" transform="translate(34.55 771.4) rotate(-74.4)"/>
    <rect class="cls-2" x="72.82" y="236.31" width="1" height="10.98" transform="translate(-179.12 252.67) rotate(-75.6)"/>
    <rect class="cls-2" x="526.18" y="352.71" width="1" height="10.98" transform="translate(48.76 779.26) rotate(-75.6)"/>
    <rect class="cls-2" x="71.65" y="241.07" width="1" height="10.98" transform="translate(-184.37 260.51) rotate(-76.8)"/>
    <rect class="cls-2" x="527.35" y="347.95" width="1" height="10.98" transform="translate(63.22 786.64) rotate(-76.8)"/>
    <rect class="cls-2" x="69.61" y="250.66" width="1" height="10.98" transform="translate(-194.63 277.01) rotate(-79.2)"/>
    <rect class="cls-2" x="529.39" y="338.36" width="1" height="10.98" transform="translate(92.82 799.91) rotate(-79.2)"/>
    <rect class="cls-2" x="68.75" y="255.48" width="1" height="10.98" transform="translate(-199.62 285.71) rotate(-80.4)"/>
    <rect class="cls-2" x="530.26" y="333.54" width="1" height="10.98" transform="translate(107.98 805.83) rotate(-80.4)"/>
    <rect class="cls-2" x="67.98" y="260.32" width="1" height="10.98" transform="translate(-204.48 294.74) rotate(-81.6)"/>
    <rect class="cls-2" x="531.02" y="328.7" width="1" height="10.98" transform="translate(123.29 811.2) rotate(-81.6)"/>
    <rect class="cls-2" x="67.31" y="265.18" width="1" height="10.98" transform="translate(-209.22 304.02) rotate(-82.8)"/>
    <rect class="cls-2" x="531.69" y="323.84" width="1" height="10.98" transform="translate(138.74 816.04) rotate(-82.8)"/>
    <rect class="cls-2" x="66.29" y="274.93" width="1" height="10.98" transform="translate(-218.23 323.52) rotate(-85.2)"/>
    <rect class="cls-2" x="532.71" y="314.09" width="1" height="10.98" transform="translate(170.11 824.17) rotate(-85.2)"/>
    <rect class="cls-2" x="65.93" y="279.82" width="1" height="10.98" transform="translate(-222.48 333.7) rotate(-86.4)"/>
    <rect class="cls-2" x="533.07" y="309.21" width="1" height="10.98" transform="translate(186 827.46) rotate(-86.4)"/>
    <rect class="cls-2" x="65.67" y="284.71" width="1" height="10.98" transform="translate(-226.55 344.15) rotate(-87.6)"/>
    <rect class="cls-2" x="533.33" y="304.31" width="1" height="10.98" transform="translate(201.98 830.21) rotate(-87.6)"/>
    <rect class="cls-2" x="65.52" y="289.61" width="1" height="10.98" transform="translate(-230.39 354.95) rotate(-88.8)"/>
    <rect class="cls-2" x="533.48" y="299.41" width="1" height="10.98" transform="translate(217.96 832.38) rotate(-88.8)"/>
    <rect class="cls-2" x="60.53" y="304.4" width="10.98" height="1" transform="translate(-6.24 1.42) rotate(-1.17)"/>
    <rect class="cls-2" x="528.49" y="294.6" width="10.98" height="1" transform="translate(-5.94 11.01) rotate(-1.17)"/>
    <rect class="cls-2" x="60.68" y="309.3" width="10.98" height="1" transform="translate(-12.94 3.05) rotate(-2.4)"/>
    <rect class="cls-2" x="528.34" y="289.7" width="10.98" height="1" transform="translate(-11.71 22.65) rotate(-2.4)"/>
    <rect class="cls-2" x="60.94" y="314.2" width="10.98" height="1" transform="translate(-19.54 4.77) rotate(-3.58)"/>
    <rect class="cls-2" x="528.08" y="284.81" width="10.98" height="1" transform="translate(-16.79 33.91) rotate(-3.58)"/>
    <rect class="cls-2" x="61.3" y="319.08" width="10.98" height="1" transform="translate(-26.61 6.74) rotate(-4.82)"/>
    <rect class="cls-2" x="527.72" y="279.92" width="10.98" height="1" transform="translate(-21.67 45.79) rotate(-4.82)"/>
    <rect class="cls-2" x="62.32" y="328.83" width="10.98" height="1" transform="translate(-40.63 11.06) rotate(-7.18)"/>
    <rect class="cls-2" x="526.7" y="270.17" width="10.98" height="1" transform="translate(-29.66 68.64) rotate(-7.18)"/>
    <rect class="cls-2" x="62.99" y="333.69" width="10.98" height="1" transform="translate(-48.17 13.62) rotate(-8.41)"/>
    <rect class="cls-2" x="526.03" y="265.31" width="10.98" height="1" transform="translate(-33.18 80.64) rotate(-8.41)"/>
    <rect class="cls-2" x="63.76" y="338.53" width="10.98" height="1" transform="translate(-55.62 16.32) rotate(-9.61)"/>
    <rect class="cls-2" x="525.27" y="260.47" width="10.98" height="1" transform="translate(-36.12 92.26) rotate(-9.61)"/>
    <rect class="cls-2" x="64.62" y="343.35" width="10.98" height="1" transform="translate(-63.22 19.24) rotate(-10.81)"/>
    <rect class="cls-2" x="524.4" y="255.65" width="10.98" height="1" transform="translate(-38.63 103.88) rotate(-10.81)"/>
    <rect class="cls-2" x="66.66" y="352.94" width="10.98" height="1" transform="translate(-78.92 25.87) rotate(-13.22)"/>
    <rect class="cls-2" x="522.36" y="246.06" width="10.98" height="1" transform="translate(-42.4 127.26) rotate(-13.22)"/>
    <rect class="cls-2" x="67.83" y="357.7" width="10.98" height="1" transform="translate(-86.87 29.53) rotate(-14.42)"/>
    <rect class="cls-2" x="521.19" y="241.3" width="10.98" height="1" transform="translate(-43.62 138.74) rotate(-14.42)"/>
    <rect class="cls-2" x="69.1" y="362.44" width="10.98" height="1" transform="translate(-94.76 33.38) rotate(-15.58)"/>
    <rect class="cls-2" x="519.92" y="236.57" width="10.98" height="1" transform="translate(-44.37 149.87) rotate(-15.58)"/>
    <rect class="cls-2" x="70.47" y="367.14" width="10.98" height="1" transform="translate(-103.06 37.67) rotate(-16.81)"/>
    <rect class="cls-2" x="518.55" y="231.86" width="10.98" height="1" transform="translate(-44.8 161.45) rotate(-16.81)"/>
    <rect class="cls-2" x="73.5" y="376.47" width="10.98" height="1" transform="translate(-119.55 46.93) rotate(-19.2)"/>
    <rect class="cls-2" x="515.53" y="222.54" width="10.98" height="1" transform="translate(-44.36 183.7) rotate(-19.2)"/>
    <rect class="cls-2" x="75.16" y="381.08" width="10.98" height="1" transform="translate(-127.94 52.04) rotate(-20.4)"/>
    <rect class="cls-2" x="513.87" y="217.92" width="10.98" height="1" transform="translate(-43.56 194.72) rotate(-20.4)"/>
    <rect class="cls-2" x="76.91" y="385.65" width="10.98" height="1" transform="translate(-136.39 57.47) rotate(-21.6)"/>
    <rect class="cls-2" x="512.11" y="213.35" width="10.98" height="1" transform="translate(-42.38 205.6) rotate(-21.6)"/>
    <rect class="cls-2" x="78.77" y="390.19" width="10.98" height="1" transform="translate(-144.87 63.21) rotate(-22.81)"/>
    <rect class="cls-2" x="510.26" y="208.81" width="10.98" height="1" transform="translate(-40.81 216.3) rotate(-22.81)"/>
    <rect class="cls-2" x="82.75" y="399.15" width="10.98" height="1" transform="translate(-161.84 75.66) rotate(-25.21)"/>
    <rect class="cls-2" x="506.27" y="199.86" width="10.98" height="1" transform="translate(-36.59 237.09) rotate(-25.21)"/>
    <rect class="cls-2" x="84.89" y="403.56" width="10.98" height="1" transform="translate(-170.04 82.16) rotate(-26.36)"/>
    <rect class="cls-2" x="504.14" y="195.44" width="10.98" height="1" transform="translate(-34.01 246.7) rotate(-26.36)"/>
    <rect class="cls-2" x="87.11" y="407.93" width="10.98" height="1" transform="translate(-178.49 89.22) rotate(-27.57)"/>
    <rect class="cls-2" x="501.91" y="191.07" width="10.98" height="1" transform="translate(-31.05 256.55) rotate(-27.57)"/>
    <rect class="cls-2" x="89.43" y="412.25" width="10.98" height="1" transform="translate(-186.92 96.62) rotate(-28.77)"/>
    <rect class="cls-2" x="499.59" y="186.76" width="10.98" height="1" transform="translate(-27.78 266.18) rotate(-28.77)"/>
    <rect class="cls-2" x="94.33" y="420.74" width="10.98" height="1" transform="translate(-203.64 112.5) rotate(-31.17)"/>
    <rect class="cls-2" x="494.69" y="178.27" width="10.98" height="1" transform="translate(-20.31 284.74) rotate(-31.17)"/>
    <rect class="cls-2" x="96.91" y="424.9" width="10.98" height="1" transform="translate(-212.17 121.27) rotate(-32.43)"/>
    <rect class="cls-2" x="492.11" y="174.1" width="10.98" height="1" transform="translate(-16.02 294.1) rotate(-32.43)"/>
    <rect class="cls-2" x="99.58" y="429.01" width="10.98" height="1" transform="translate(-220.36 130.15) rotate(-33.64)"/>
    <rect class="cls-2" x="489.44" y="169.99" width="10.98" height="1" transform="translate(-11.55 302.76) rotate(-33.64)"/>
    <rect class="cls-2" x="102.34" y="433.07" width="10.98" height="1" transform="translate(-228.2 139.13) rotate(-34.81)"/>
    <rect class="cls-2" x="486.69" y="165.94" width="10.98" height="1" transform="translate(-6.94 310.73) rotate(-34.81)"/>
    <rect class="cls-2" x="108.1" y="441" width="10.98" height="1" transform="translate(-243.73 158.4) rotate(-37.18)"/>
    <rect class="cls-2" x="480.92" y="158.01" width="10.98" height="1" transform="translate(3.09 326.19) rotate(-37.18)"/>
    <rect class="cls-2" x="111.1" y="444.87" width="10.98" height="1" transform="translate(-251.49 168.85) rotate(-38.42)"/>
    <rect class="cls-2" x="477.92" y="154.13" width="10.98" height="1" transform="translate(8.56 333.84) rotate(-38.42)"/>
    <rect class="cls-2" x="114.19" y="448.68" width="10.98" height="1" transform="translate(-259.08 179.68) rotate(-39.65)"/>
    <rect class="cls-2" x="474.84" y="150.32" width="10.98" height="1" transform="translate(14.25 341.17) rotate(-39.65)"/>
    <rect class="cls-2" x="117.35" y="452.42" width="10.98" height="1" transform="translate(-265.94 190.09) rotate(-40.77)"/>
    <rect class="cls-2" x="471.67" y="146.58" width="10.98" height="1" transform="translate(19.73 347.25) rotate(-40.77)"/>
    <rect class="cls-2" x="123.91" y="459.71" width="10.98" height="1" transform="translate(-280.04 213.44) rotate(-43.22)"/>
    <rect class="cls-2" x="465.11" y="139.3" width="10.98" height="1" transform="translate(31.92 360.18) rotate(-43.22)"/>
    <rect class="cls-2" x="127.3" y="463.24" width="10.98" height="1" transform="translate(-286.41 225.08) rotate(-44.37)"/>
    <rect class="cls-2" x="461.72" y="135.76" width="10.98" height="1" transform="translate(37.93 365.55) rotate(-44.37)"/>
    <rect class="cls-2" x="130.77" y="466.71" width="10.98" height="1" transform="translate(-293.02 237.92) rotate(-45.63)"/>
    <rect class="cls-2" x="458.25" y="132.29" width="10.98" height="1" transform="translate(44.54 371.46) rotate(-45.63)"/>
    <rect class="cls-2" x="134.31" y="470.1" width="10.98" height="1" transform="translate(-299.19 250.82) rotate(-46.86)"/>
    <rect class="cls-2" x="454.72" y="128.9" width="10.98" height="1" transform="translate(50.94 376.45) rotate(-46.82)"/>
    <rect class="cls-2" x="141.59" y="476.66" width="10.98" height="1" transform="translate(-310.08 276.36) rotate(-49.16)"/>
    <rect class="cls-2" x="447.43" y="122.34" width="10.98" height="1" transform="translate(63.78 385.13) rotate(-49.16)"/>
    <rect class="cls-2" x="145.33" y="479.83" width="10.98" height="1" transform="translate(-315.51 290.62) rotate(-50.43)"/>
    <rect class="cls-2" x="443.69" y="119.18" width="10.98" height="1" transform="translate(70.8 389.69) rotate(-50.43)"/>
    <rect class="cls-2" x="149.14" y="482.91" width="10.98" height="1" transform="translate(-320.32 304.49) rotate(-51.62)"/>
    <rect class="cls-2" x="439.88" y="116.09" width="10.98" height="1" transform="translate(77.45 393.33) rotate(-51.62)"/>
    <rect class="cls-2" x="153.02" y="485.91" width="10.98" height="1" transform="translate(-324.69 318.35) rotate(-52.77)"/>
    <rect class="cls-2" x="436.01" y="113.09" width="10.98" height="1" transform="translate(83.96 396.4) rotate(-52.77)"/>
    <rect class="cls-2" x="160.95" y="491.68" width="10.98" height="1" transform="translate(-332.76 348.16) rotate(-55.22)"/>
    <rect class="cls-2" x="428.08" y="107.33" width="10.98" height="1" transform="translate(97.7 402.45) rotate(-55.22)"/>
    <rect class="cls-2" x="165" y="494.43" width="10.98" height="1" transform="translate(-336.17 363.35) rotate(-56.43)"/>
    <rect class="cls-2" x="424.02" y="104.57" width="10.98" height="1" transform="translate(104.49 404.87) rotate(-56.43)"/>
    <rect class="cls-2" x="169.11" y="497.1" width="10.98" height="1" transform="translate(-339.19 378.79) rotate(-57.64)"/>
    <rect class="cls-2" x="419.91" y="101.9" width="10.98" height="1" transform="translate(111.24 406.95) rotate(-57.64)"/>
    <rect class="cls-2" x="173.28" y="499.68" width="10.98" height="1" transform="translate(-341.73 394.21) rotate(-58.83)"/>
    <rect class="cls-2" x="415.75" y="99.32" width="10.98" height="1" transform="translate(117.78 408.55) rotate(-58.83)"/>
    <rect class="cls-2" x="181.77" y="504.58" width="10.98" height="1" transform="translate(-345.51 425.45) rotate(-61.16)"/>
    <rect class="cls-2" x="407.26" y="94.42" width="10.98" height="1" transform="translate(130.49 410.67) rotate(-61.16)"/>
    <rect class="cls-2" x="186.08" y="506.9" width="10.98" height="1" transform="translate(-346.85 442.18) rotate(-62.41)"/>
    <rect class="cls-2" x="402.94" y="92.1" width="10.98" height="1" transform="translate(137.19 411.69) rotate(-62.41)"/>
    <rect class="cls-2" x="190.45" y="509.13" width="10.98" height="1" transform="translate(-347.62 458.16) rotate(-63.56)"/>
    <rect class="cls-2" x="398.57" y="89.88" width="10.98" height="1" transform="translate(143.23 411.93) rotate(-63.56)"/>
    <rect class="cls-2" x="194.87" y="511.26" width="10.98" height="1" transform="translate(-348.01 475.25) rotate(-64.81)"/>
    <rect class="cls-2" x="394.16" y="87.74" width="10.98" height="1" transform="translate(149.7 412.33) rotate(-64.81)"/>
    <rect class="cls-2" x="203.82" y="515.25" width="10.98" height="1" transform="translate(-347.25 509.25) rotate(-67.24)"/>
    <rect class="cls-2" x="385.2" y="83.76" width="10.98" height="1" transform="translate(161.86 411.94) rotate(-67.24)"/>
    <rect class="cls-2" x="208.36" y="517.1" width="10.98" height="1" transform="translate(-346.12 526.36) rotate(-68.45)"/>
    <rect class="cls-2" x="380.66" y="81.9" width="10.98" height="1" transform="translate(167.66 411.29) rotate(-68.45)"/>
    <rect class="cls-2" x="212.93" y="518.86" width="10.98" height="1" transform="translate(-344.47 543.57) rotate(-69.65)"/>
    <rect class="cls-2" x="376.09" y="80.15" width="10.98" height="1" transform="translate(173.29 410.38) rotate(-69.65)"/>
    <rect class="cls-2" x="217.55" y="520.52" width="10.98" height="1" transform="translate(-342.32 560.69) rotate(-70.84)"/>
    <rect class="cls-2" x="371.48" y="78.49" width="10.98" height="1" transform="translate(178.63 409.14) rotate(-70.84)"/>
    <rect class="cls-2" x="226.87" y="523.54" width="10.98" height="1" transform="translate(-336.49 594.95) rotate(-73.19)"/>
    <rect class="cls-2" x="362.15" y="75.46" width="10.98" height="1" transform="translate(188.63 405.93) rotate(-73.19)"/>
    <rect class="cls-2" x="231.58" y="524.91" width="10.98" height="1" transform="translate(-332.8 612.07) rotate(-74.36)"/>
    <rect class="cls-2" x="357.45" y="74.09" width="10.98" height="1" transform="translate(193.28 403.98) rotate(-74.36)"/>
    <rect class="cls-2" x="236.31" y="526.18" width="10.98" height="1" transform="translate(-328.4 630.28) rotate(-75.64)"/>
    <rect class="cls-2" x="352.71" y="72.82" width="10.98" height="1" transform="translate(198.32 402.14) rotate(-75.64)"/>
    <rect class="cls-2" x="241.07" y="527.35" width="10.98" height="1" transform="translate(-323.66 647.27) rotate(-76.79)"/>
    <rect class="cls-2" x="347.95" y="71.65" width="10.98" height="1" transform="translate(202.44 399.76) rotate(-76.79)"/>
    <rect class="cls-2" x="250.66" y="529.39" width="10.98" height="1" transform="translate(-312.37 682.15) rotate(-79.19)"/>
    <rect class="cls-2" x="338.36" y="69.61" width="10.98" height="1" transform="translate(210.52 394.73) rotate(-79.19)"/>
    <rect class="cls-2" x="255.48" y="530.26" width="10.98" height="1" transform="translate(-305.74 700.01) rotate(-80.45)"/>
    <rect class="cls-2" x="333.54" y="68.75" width="10.98" height="1" transform="translate(214.47 392.08) rotate(-80.45)"/>
    <rect class="cls-2" x="260.32" y="531.02" width="10.98" height="1" transform="translate(-298.91 716.61) rotate(-81.58)"/>
    <rect class="cls-2" x="328.7" y="67.98" width="10.98" height="1" transform="translate(217.5 389.03) rotate(-81.58)"/>
    <rect class="cls-2" x="265.18" y="531.69" width="10.98" height="1" transform="translate(-291.18 734.21) rotate(-82.82)"/>
    <rect class="cls-2" x="323.84" y="67.31" width="10.98" height="1" transform="translate(220.88 386.09) rotate(-82.82)"/>
    <rect class="cls-2" x="274.93" y="532.71" width="10.98" height="1" transform="translate(-274.47 767.84) rotate(-85.18)"/>
    <rect class="cls-2" x="314.09" y="66.29" width="10.98" height="1" transform="translate(226.18 379.63) rotate(-85.18)"/>
    <rect class="cls-2" x="279.82" y="533.07" width="10.98" height="1" transform="translate(-265.05 784.97) rotate(-86.42)"/>
    <rect class="cls-2" x="309.21" y="65.93" width="10.98" height="1" transform="translate(228.73 376.36) rotate(-86.42)"/>
    <rect class="cls-2" x="284.71" y="533.33" width="10.98" height="1" transform="translate(-255.08 801.88) rotate(-87.65)"/>
    <rect class="cls-2" x="304.31" y="65.67" width="10.98" height="1" transform="translate(230.97 373) rotate(-87.65)"/>
    <rect class="cls-2" x="289.61" y="533.48" width="10.98" height="1" transform="translate(-245.1 817.54) rotate(-88.77)"/>
    <rect class="cls-2" x="299.41" y="65.52" width="10.98" height="1" transform="translate(232.35 369.43) rotate(-88.77)"/>
  </g>
</svg>