<?xml version="1.0" encoding="UTF-8"?>
<svg id="_레이어_3" data-name="레이어 3" xmlns="http://www.w3.org/2000/svg" viewBox="0 0 600 600">
  <defs>
    <style>
      .cls-1 {
        fill: #ff0;
      }
    </style>
  </defs>
  <path class="cls-1" d="M300,72.95l-5.99,12.47v200.85c-5.29,2.31-8.98,7.58-8.98,13.72,0,8.27,6.7,14.97,14.97,14.97,8.27,0,14.97-6.7,14.97-14.97,0-6.14-3.7-11.41-8.98-13.72V85.43s-5.99-12.47-5.99-12.47ZM304.49,300c0,2.48-2.01,4.49-4.49,4.49-2.48,0-4.49-2.01-4.49-4.49,0-2.48,2.01-4.49,4.49-4.49h0c2.48,0,4.49,2.01,4.49,4.49Z"/>
</svg>