<?xml version="1.0" encoding="UTF-8"?>
<svg id="_레이어_1" data-name="레이어 1" xmlns="http://www.w3.org/2000/svg" viewBox="0 0 600 600">
  <defs>
    <style>
      .cls-1 {
        fill: #ff0;
      }
    </style>
  </defs>
  <path class="cls-1" d="M329,191.98h0,0s0-.02,0-.02h-.01l-28.99-49.98-28.99,49.98h-.01v.02s0,0,0,0h0l19,89.98v3.06c-4.82,3.23-8,8.72-8,14.96,0,9.94,8.06,18,18,18s18-8.06,18-18c0-6.24-3.18-11.74-8-14.96v-3.06l19-89.98ZM300,304.48c-2.49,0-4.5-2.01-4.5-4.5s2.01-4.5,4.5-4.5,4.5,2.01,4.5,4.5-2.01,4.5-4.5,4.5Z"/>
</svg>