<?xml version="1.0" encoding="UTF-8"?>
<svg xmlns="http://www.w3.org/2000/svg" viewBox="0 0 600 600">
  <defs>
    <style>
      .cls-1 {
        fill: white;
      }

      .cls-2 {
        fill: black;
      }
    </style>
  </defs>
  <g id="base">
    <circle class="cls-1" cx="300" cy="300" r="250"/>
  </g>
  <g id="_레이어_1" data-name="레이어 1">
    <g>
      <rect class="cls-2" x="71.85" y="290.24" width="78.76" height="20"/>
      <rect class="cls-2" x="450.61" y="290.24" width="78.76" height="20"/>
      <rect class="cls-2" x="261.23" y="479.62" width="78.76" height="20" transform="translate(-189.01 790.22) rotate(-90)"/>
      <circle class="cls-2" cx="117.65" cy="405.87" r="17.5"/>
      <circle class="cls-2" cx="483.56" cy="194.61" r="17.5"/>
      <circle class="cls-2" cx="194.98" cy="483.19" r="17.5"/>
      <circle class="cls-2" cx="406.23" cy="117.29" r="17.5"/>
      <circle class="cls-2" cx="483.56" cy="405.87" r="17.5"/>
      <circle class="cls-2" cx="117.65" cy="194.61" r="17.5"/>
      <circle class="cls-2" cx="406.23" cy="483.19" r="17.5"/>
      <circle class="cls-2" cx="194.98" cy="117.29" r="17.5"/>
      <polygon class="cls-2" points="300.61 164 276.56 71.48 324.65 71.48 300.61 164"/>
    </g>
    <g>
      <rect class="cls-2" x="298.63" y="51" width="2.75" height="18"/>
      <rect class="cls-2" x="298.62" y="531" width="2.75" height="18"/>
      <rect class="cls-2" x="411" y="90.78" width="18" height="2.75" transform="translate(130.15 409.77) rotate(-59.99)"/>
      <rect class="cls-2" x="171" y="506.47" width="18" height="2.75" transform="translate(-349.79 409.74) rotate(-59.99)"/>
      <rect class="cls-2" x="498.85" y="178.63" width="18" height="2.75" transform="translate(-21.97 278.01) rotate(-30)"/>
      <rect class="cls-2" x="83.15" y="418.62" width="18" height="2.75" transform="translate(-197.64 102.33) rotate(-30)"/>
      <rect class="cls-2" x="531" y="298.63" width="18" height="2.75"/>
      <rect class="cls-2" x="51" y="298.62" width="18" height="2.75"/>
      <rect class="cls-2" x="506.47" y="411" width="2.75" height="18" transform="translate(-109.81 649.81) rotate(-60)"/>
      <rect class="cls-2" x="90.78" y="171" width="2.75" height="18" transform="translate(-109.81 169.81) rotate(-60)"/>
      <rect class="cls-2" x="418.62" y="498.85" width="2.75" height="18" transform="translate(-197.65 278.04) rotate(-30)"/>
      <rect class="cls-2" x="178.63" y="83.15" width="2.75" height="18" transform="translate(-21.96 102.35) rotate(-30)"/>
      <rect class="cls-2" x="316.09" y="60.82" width="18" height="1" transform="translate(230.13 378.21) rotate(-84)"/>
      <rect class="cls-2" x="265.91" y="538.19" width="18" height="1" transform="translate(-289.56 755.78) rotate(-84)"/>
      <rect class="cls-2" x="340.9" y="64.74" width="18" height="1" transform="translate(213.33 393.93) rotate(-78)"/>
      <rect class="cls-2" x="241.1" y="534.25" width="18" height="1" transform="translate(-324.97 668.2) rotate(-78)"/>
      <rect class="cls-2" x="365.16" y="71.25" width="18" height="1" transform="translate(190.45 405.51) rotate(-72.03)"/>
      <rect class="cls-2" x="216.84" y="527.75" width="18" height="1" transform="translate(-346.33 580.05) rotate(-72.03)"/>
      <rect class="cls-2" x="388.62" y="80.25" width="18" height="1" transform="translate(162.05 411.09) rotate(-65.99)"/>
      <rect class="cls-2" x="193.38" y="518.75" width="18" height="1" transform="translate(-354.3 493.05) rotate(-66.01)"/>
      <rect class="cls-2" x="432.07" y="105.34" width="18" height="1" transform="translate(96.09 400.34) rotate(-53.98)"/>
      <rect class="cls-2" x="149.93" y="493.66" width="18" height="1" transform="translate(-334.22 332.11) rotate(-53.98)"/>
      <rect class="cls-2" x="451.59" y="121.15" width="18" height="1" transform="translate(61.86 382.34) rotate(-47.97)"/>
      <rect class="cls-2" x="130.41" y="477.85" width="18" height="1" transform="translate(-309.25 261.65) rotate(-47.97)"/>
      <rect class="cls-2" x="469.36" y="138.91" width="18" height="1" transform="translate(29.71 356.15) rotate(-42.03)"/>
      <rect class="cls-2" x="112.64" y="460.09" width="18" height="1" transform="translate(-277.1 199.93) rotate(-42.03)"/>
      <rect class="cls-2" x="485.16" y="158.43" width="18" height="1" transform="translate(1.01 320.98) rotate(-36.02)"/>
      <rect class="cls-2" x="96.83" y="440.57" width="18" height="1" transform="translate(-239.14 146.56) rotate(-36.02)"/>
      <rect class="cls-2" x="510.25" y="201.88" width="18" height="1" transform="translate(-37.43 228.55) rotate(-23.99)"/>
      <rect class="cls-2" x="71.75" y="397.12" width="18" height="1" transform="translate(-154.66 67.16) rotate(-23.99)"/>
      <rect class="cls-2" x="519.25" y="225.34" width="18" height="1" transform="translate(-43.91 174.04) rotate(-17.97)"/>
      <rect class="cls-2" x="62.75" y="373.66" width="18" height="1" transform="translate(-111.96 40.4) rotate(-17.97)"/>
      <rect class="cls-2" x="525.76" y="249.6" width="18" height="1" transform="translate(-40.19 116.11) rotate(-11.95)"/>
      <rect class="cls-2" x="56.24" y="349.4" width="18" height="1" transform="translate(-71.01 21.08) rotate(-11.95)"/>
      <rect class="cls-2" x="529.69" y="274.41" width="18" height="1" transform="translate(-26 58.36) rotate(-6.06)"/>
      <rect class="cls-2" x="52.31" y="324.59" width="18" height="1" transform="translate(-33.95 8.28) rotate(-6.06)"/>
      <rect class="cls-2" x="274.41" y="52.31" width="1" height="18" transform="translate(-4.9 29.08) rotate(-6)"/>
      <rect class="cls-2" x="324.59" y="529.69" width="1" height="18" transform="translate(-54.54 36.94) rotate(-6)"/>
      <rect class="cls-2" x="249.6" y="56.24" width="1" height="18" transform="translate(-8.1 53.42) rotate(-12)"/>
      <rect class="cls-2" x="349.4" y="525.75" width="1" height="18" transform="translate(-103.53 84.43) rotate(-12)"/>
      <rect class="cls-2" x="225.33" y="62.75" width="1" height="18" transform="translate(-11.12 73.3) rotate(-18)"/>
      <rect class="cls-2" x="373.67" y="519.25" width="1" height="18" transform="translate(-144.93 141.49) rotate(-18)"/>
      <rect class="cls-2" x="201.88" y="71.75" width="1" height="18" transform="translate(-15.35 89.3) rotate(-24)"/>
      <rect class="cls-2" x="397.12" y="510.25" width="1" height="18" transform="translate(-176.82 206.62) rotate(-24)"/>
      <rect class="cls-2" x="158.43" y="96.84" width="1" height="18" transform="translate(-31.86 113.63) rotate(-36)"/>
      <rect class="cls-2" x="440.57" y="485.16" width="1" height="18" transform="translate(-206.23 353.64) rotate(-36)"/>
      <rect class="cls-2" x="138.91" y="112.65" width="1" height="18" transform="translate(-45.59 124.53) rotate(-42)"/>
      <rect class="cls-2" x="460.09" y="469.35" width="1" height="18" transform="translate(-201.78 431.06) rotate(-42)"/>
      <rect class="cls-2" x="121.14" y="130.41" width="1" height="18" transform="translate(-63.35 136.53) rotate(-48)"/>
      <rect class="cls-2" x="477.86" y="451.59" width="1" height="18" transform="translate(-184.01 507.9) rotate(-48)"/>
      <rect class="cls-2" x="105.34" y="149.93" width="1" height="18" transform="translate(-84.95 151.14) rotate(-54)"/>
      <rect class="cls-2" x="493.67" y="432.07" width="1" height="18" transform="translate(-153.13 581.61) rotate(-54)"/>
      <rect class="cls-2" x="80.25" y="193.38" width="1" height="18" transform="translate(-136.98 193.84) rotate(-66)"/>
      <rect class="cls-2" x="518.75" y="388.62" width="1" height="18" transform="translate(-55.18 710.26) rotate(-66)"/>
      <rect class="cls-2" x="71.25" y="216.84" width="1" height="18" transform="translate(-165.21 224.28) rotate(-72)"/>
      <rect class="cls-2" x="527.75" y="365.16" width="1" height="18" transform="translate(9.17 760.95) rotate(-72)"/>
      <rect class="cls-2" x="64.74" y="241.1" width="1" height="18" transform="translate(-192.96 261.92) rotate(-78)"/>
      <rect class="cls-2" x="534.26" y="340.9" width="1" height="18" transform="translate(81.33 800.22) rotate(-78)"/>
      <rect class="cls-2" x="60.82" y="265.91" width="1" height="18" transform="translate(-218.5 307.16) rotate(-84)"/>
      <rect class="cls-2" x="538.19" y="316.09" width="1" height="18" transform="translate(159.06 826.83) rotate(-84)"/>
    </g>
  </g>
</svg>