<?xml version="1.0" encoding="UTF-8"?>
<svg id="_레이어_1" data-name="레이어 1" xmlns="http://www.w3.org/2000/svg" viewBox="0 0 600 600">
  <defs>
    <style>
      .cls-1 {
        fill: white;
      }
    </style>
  </defs>
  <path class="cls-1" d="M313.5,299.95c0-6.42-4.49-11.79-10.5-13.15v-153.05l9.66-16.25-12.71-57.5-12.29,57.5,9.34,16.25v153.05c-6.01,1.37-10.5,6.73-10.5,13.15s4.43,11.72,10.38,13.12v.38l-2.88,44.55,6,6,6-6-3.12-44.55v-.32c6.07-1.32,10.62-6.72,10.62-13.18ZM295.5,299.95c0-2.49,2.01-4.5,4.5-4.5s4.5,2.01,4.5,4.5-2.01,4.5-4.5,4.5-4.5-2.01-4.5-4.5Z"/>
</svg>