<?xml version="1.0" encoding="UTF-8"?>
<svg id="_레이어_3" data-name="레이어 3" xmlns="http://www.w3.org/2000/svg" viewBox="0 0 600 600">
  <defs>
    <style>
      .cls-1 {
        fill: blue;
      }

      .cls-2 {
        fill: #ff0;
      }
    </style>
  </defs>
  <circle class="cls-2" cx="300" cy="300" r="250"/>
  <g>
    <g>
      <path class="cls-1" d="M282.84,101.98h-7.77l3.75-6.29h10.85v44.61h-6.83v-38.32Z"/>
      <path class="cls-1" d="M328.06,140.3h-30.02l15.48-18.73c1.54-1.87,3.89-4.82,5.36-6.96,1.27-1.87,2.34-3.81,2.34-6.42,0-3.75-2.48-7.22-7.44-7.22s-7.64,3.88-7.91,8.09h-6.57c.2-4.35,2.01-7.83,3.75-9.76,1.61-1.81,4.82-4.35,10.45-4.35,9.51,0,14.41,6.49,14.41,13.44,0,3.68-1.41,6.69-3.22,9.36-1.61,2.41-3.69,4.88-6.37,8.03l-6.97,8.23h16.68v6.29Z"/>
    </g>
    <path class="cls-1" d="M308.54,462.1l-9.89,13.44c.93-.2,1.74-.27,2.61-.27,4.85,0,7.9,2.27,9.58,4.15,2.24,2.54,3.67,6.35,3.67,10.43s-1.31,8.29-4.11,11.24c-3.48,3.68-7.96,4.21-10.7,4.21-3.61,0-7.53-.8-10.7-4.35-2.18-2.47-3.61-5.75-3.61-10.1,0-3.28.68-5.82,1.99-8.56,1.55-3.34,3.17-5.35,5.04-7.96l11.51-15.92,4.6,3.68ZM294.05,483.57c-1.37,1.4-2.43,3.81-2.43,6.62,0,2.27.81,4.95,2.43,6.62,1.31,1.34,3.79,2.47,5.97,2.47,1.93,0,4.29-.8,5.85-2.47,1.55-1.67,2.43-4.35,2.43-6.62s-.87-4.95-2.43-6.62c-1.43-1.54-3.73-2.47-5.85-2.47s-4.48.94-5.97,2.47Z"/>
    <path class="cls-1" d="M109.23,320.29l9.77-13.44c-.81.2-1.49.27-2.24.27-4.91,0-8.02-2.34-9.7-4.15-2.12-2.27-3.79-5.55-3.79-10.17s1.62-8.43,4.11-11.17c2.61-2.88,6.1-4.55,10.7-4.55,5.66,0,8.96,2.47,10.7,4.41,1.74,1.94,3.61,5.15,3.61,10.1,0,3.21-.68,5.75-1.99,8.49-1.55,3.34-3.17,5.35-5.04,7.96l-11.51,15.92-4.6-3.68ZM123.73,298.63c1.56-1.74,2.43-4.28,2.43-6.62s-.87-4.75-2.43-6.35c-1.55-1.61-3.79-2.54-5.91-2.54-2.3,0-4.54,1.14-5.91,2.54-1.37,1.47-2.43,3.81-2.43,6.55,0,2.47.87,4.95,2.43,6.62,1.37,1.4,3.55,2.47,5.85,2.47,2.12,0,4.35-.87,5.97-2.67Z"/>
    <path class="cls-1" d="M467.49,289.2c.2-3.61,1.76-6.69,3.85-8.69,3.11-2.94,6.9-3.41,9.87-3.41,3.45,0,6.83.67,9.74,3.68,2.37,2.41,3.25,5.28,3.25,8.49,0,2.14-.41,4.01-1.56,5.88-1.22,1.94-2.77,3.08-4.06,3.75,2.3.87,3.72,2.41,4.46,3.54,1.28,1.87,1.89,4.35,1.89,6.89,0,4.41-1.69,7.83-3.85,9.96-3.25,3.21-7.5,3.88-11.02,3.88s-7.17-.67-10.07-3.75c-2.03-2.14-3.52-5.68-3.85-9.1h6.62c.34,2.01,1.29,3.75,2.43,4.82.95.87,2.64,2.01,5.48,2.01,2.1,0,4.06-.8,5.27-1.87,1.29-1.2,2.37-3.28,2.37-6.29,0-1.47-.27-3.61-2.03-5.28-1.96-1.87-4.39-2.01-5.81-2.01h-1.35v-5.75h.95c2.91,0,4.73-.94,5.75-1.94,1.08-1.07,1.76-2.74,1.76-4.75,0-2.34-1.01-3.75-1.76-4.48-1.56-1.47-3.45-1.67-4.8-1.67-1.62,0-3.52.27-5,1.81-1.56,1.61-1.89,4.01-1.89,4.28h-6.63Z"/>
    <path class="cls-1" d="M388.73,126.38h-7.84l3.79-6.29h10.95v44.61h-6.9v-38.32Z"/>
    <path class="cls-1" d="M471.08,231.37h-30.29l15.62-18.73c1.56-1.87,3.92-4.82,5.41-6.96,1.29-1.87,2.37-3.81,2.37-6.42,0-3.75-2.5-7.22-7.5-7.22s-7.71,3.88-7.98,8.09h-6.63c.2-4.35,2.03-7.83,3.79-9.76,1.62-1.81,4.87-4.35,10.55-4.35,9.6,0,14.54,6.49,14.54,13.44,0,3.68-1.42,6.69-3.25,9.36-1.62,2.41-3.72,4.88-6.42,8.03l-7.03,8.23h16.83v6.29Z"/>
    <path class="cls-1" d="M468.78,398.79h4.87v6.29h-4.87v8.43h-6.63v-8.43h-22.31l28.94-39.46v33.17ZM462.15,398.92v-14.38l-10.28,14.38h10.28Z"/>
    <path class="cls-1" d="M404.08,441.85h-13.93l-2.23,7.42c.68-.07,1.42-.13,2.1-.13,3.79,0,7.64,1.27,10.41,3.95,2.16,2.07,4.39,5.62,4.39,11.44,0,4.88-1.55,8.83-4.6,11.84-3.58,3.48-7.91,4.55-12.51,4.55-2.64,0-5.75-.33-8.65-2.01-.68-.4-3.25-1.94-5.34-5.15l5.21-4.28c.14.33,1.35,2.54,3.45,3.88,1.49,1,3.58,1.54,5.88,1.54,3.65,0,5.75-1.4,6.9-2.47,1.35-1.34,2.91-3.75,2.91-7.56s-1.29-5.89-2.71-7.22c-2.23-2.07-5.21-2.47-7.37-2.47-1.96,0-3.45.27-5.27.94-1.42.54-2.7,1.14-3.99,2.01l6.69-22.54h18.66v6.29Z"/>
    <path class="cls-1" d="M215.52,441.85h-22.18v-6.29h33.54l-28.4,46.15-5.41-3.34,22.45-36.52Z"/>
    <g>
      <path class="cls-1" d="M194.56,126.38h-7.84l3.79-6.29h10.95v44.61h-6.9v-38.32Z"/>
      <path class="cls-1" d="M218.62,126.38h-7.84l3.79-6.29h10.95v44.61h-6.9v-38.32Z"/>
    </g>
    <path class="cls-1" d="M154.39,393.91c1.69,2.21,2.03,4.68,2.03,6.69,0,4.55-1.76,7.62-3.58,9.5-2.1,2.21-5.48,4.15-10.62,4.15s-8.52-1.94-10.62-4.15c-1.83-1.87-3.58-4.95-3.58-9.5,0-2.01.34-4.48,2.03-6.69,1.01-1.4,2.64-2.74,4.73-3.61-1.89-.8-3.18-2.14-3.99-3.34-1.15-1.81-1.62-4.08-1.62-6.09,0-3.54,1.28-6.89,3.79-9.3,1.42-1.34,4.33-3.41,9.26-3.41s7.84,2.07,9.26,3.41c2.5,2.41,3.79,5.75,3.79,9.3,0,2.01-.47,4.28-1.62,6.09-.81,1.2-2.1,2.54-3.99,3.34,2.1.87,3.72,2.21,4.73,3.61ZM136.88,395.31c-1.35,1.34-2.1,3.48-2.1,5.42,0,1.74.68,3.75,2.03,5.22.95,1.07,2.64,2.27,5.41,2.27s4.46-1.2,5.41-2.27c1.35-1.47,2.03-3.48,2.03-5.22,0-1.94-.74-4.08-2.1-5.42-1.35-1.34-3.38-2.07-5.34-2.07s-3.99.74-5.34,2.07ZM137.29,375.98c-1.15,1.14-1.89,2.94-1.89,4.95s.81,3.68,1.83,4.68c1.22,1.27,3.25,2.01,5,2.01s3.79-.74,5-2.01c1.01-1,1.83-2.61,1.83-4.68s-.74-3.81-1.89-4.95c-1.15-1.07-2.84-1.81-4.94-1.81s-3.79.74-4.94,1.81Z"/>
    <g>
      <path class="cls-1" d="M124.27,193.04h-7.84l3.79-6.29h10.95v44.61h-6.9v-38.32Z"/>
      <path class="cls-1" d="M147.67,227.29c-4.73-5.35-5.75-12.37-5.75-18.19s1.01-12.91,5.75-18.26c2.84-3.21,6.22-4.81,10.21-4.81s7.37,1.6,10.21,4.81c4.73,5.35,5.75,12.51,5.75,18.26s-1.01,12.84-5.75,18.19c-2.84,3.21-6.15,4.82-10.21,4.82s-7.37-1.6-10.21-4.82ZM151.79,195.72c-2.5,3.68-3.11,9.43-3.11,13.31s.61,9.63,3.11,13.38c1.96,2.94,4.33,3.68,6.08,3.68s4.12-.74,6.08-3.68c2.5-3.75,3.11-9.43,3.11-13.38s-.61-9.63-3.11-13.31c-1.96-2.94-4.33-3.68-6.08-3.68s-4.12.74-6.08,3.68Z"/>
    </g>
  </g>
  <g>
    <rect class="cls-1" x="311.26" y="73.57" width="24.95" height="1.25" transform="translate(216.05 388.38) rotate(-83.99)"/>
    <rect class="cls-1" x="263.79" y="525.18" width="24.95" height="1.25" transform="translate(-275.57 745.51) rotate(-83.99)"/>
    <rect class="cls-1" x="334.73" y="77.29" width="24.95" height="1.25" transform="translate(198.83 401.35) rotate(-78.01)"/>
    <rect class="cls-1" x="240.32" y="521.46" width="24.95" height="1.25" transform="translate(-310.43 660.86) rotate(-78.01)"/>
    <rect class="cls-1" x="357.69" y="83.44" width="24.95" height="1.25" transform="translate(175.68 410.05) rotate(-71.98)"/>
    <rect class="cls-1" x="217.36" y="515.31" width="24.95" height="1.25" transform="translate(-331.89 574.85) rotate(-71.98)"/>
    <rect class="cls-1" x="379.87" y="91.96" width="24.95" height="1.25" transform="translate(148.29 413.44) rotate(-66.02)"/>
    <rect class="cls-1" x="195.18" y="506.79" width="24.95" height="1.25" transform="translate(-340.36 490.92) rotate(-66.02)"/>
    <rect class="cls-1" x="207.03" y="80.11" width="1.25" height="24.95" transform="translate(-19.7 92.46) rotate(-24)"/>
    <rect class="cls-1" x="391.72" y="494.94" width="1.25" height="24.95" transform="translate(-172.46 203.45) rotate(-24)"/>
    <rect class="cls-1" x="229.22" y="71.59" width="1.25" height="24.95" transform="translate(-14.73 75.14) rotate(-18)"/>
    <rect class="cls-1" x="369.54" y="503.46" width="1.25" height="24.95" transform="translate(-141.32 139.64) rotate(-18)"/>
    <rect class="cls-1" x="252.17" y="65.44" width="1.25" height="24.95" transform="translate(-10.68 54.26) rotate(-12)"/>
    <rect class="cls-1" x="346.58" y="509.61" width="1.25" height="24.95" transform="translate(-100.96 83.59) rotate(-12)"/>
    <rect class="cls-1" x="275.64" y="61.72" width="1.25" height="24.95" transform="translate(-6.24 29.28) rotate(-6)"/>
    <rect class="cls-1" x="323.11" y="513.33" width="1.25" height="24.95" transform="translate(-53.19 36.72) rotate(-6)"/>
    <rect class="cls-1" x="115.69" y="154.07" width="1.25" height="24.95" transform="translate(-86.79 162.76) rotate(-54)"/>
    <rect class="cls-1" x="483.06" y="420.98" width="1.25" height="24.95" transform="translate(-151.29 569.99) rotate(-54)"/>
    <rect class="cls-1" x="130.65" y="135.6" width="1.25" height="24.95" transform="translate(-66.61 146.56) rotate(-48)"/>
    <rect class="cls-1" x="468.1" y="439.45" width="1.25" height="24.95" transform="translate(-180.76 497.86) rotate(-48)"/>
    <rect class="cls-1" x="147.45" y="118.8" width="1.25" height="24.95" transform="translate(-49.8 132.8) rotate(-42)"/>
    <rect class="cls-1" x="451.3" y="456.25" width="1.25" height="24.95" transform="translate(-197.56 422.8) rotate(-42)"/>
    <rect class="cls-1" x="165.92" y="103.84" width="1.25" height="24.95" transform="translate(-36.56 120.1) rotate(-36)"/>
    <rect class="cls-1" x="432.83" y="471.21" width="1.25" height="24.95" transform="translate(-201.52 347.14) rotate(-36)"/>
    <rect class="cls-1" x="73.57" y="263.79" width="1.25" height="24.95" transform="translate(-208.31 321.18) rotate(-84)"/>
    <rect class="cls-1" x="525.18" y="311.26" width="1.25" height="24.95" transform="translate(148.88 812.81) rotate(-84)"/>
    <rect class="cls-1" x="77.29" y="240.32" width="1.25" height="24.95" transform="translate(-185.55 276.45) rotate(-78)"/>
    <rect class="cls-1" x="521.46" y="334.73" width="1.25" height="24.95" transform="translate(73.91 785.69) rotate(-78)"/>
    <rect class="cls-1" x="83.44" y="217.36" width="1.25" height="24.95" transform="translate(-160.5 238.77) rotate(-72)"/>
    <rect class="cls-1" x="515.31" y="357.69" width="1.25" height="24.95" transform="translate(4.45 746.45) rotate(-72)"/>
    <rect class="cls-1" x="91.96" y="195.18" width="1.25" height="24.95" transform="translate(-134.77 207.77) rotate(-66)"/>
    <rect class="cls-1" x="506.79" y="379.87" width="1.25" height="24.95" transform="translate(-57.4 696.31) rotate(-66)"/>
    <rect class="cls-1" x="494.94" y="207.03" width="24.95" height="1.25" transform="translate(-40.59 224.37) rotate(-24)"/>
    <rect class="cls-1" x="80.11" y="391.72" width="24.95" height="1.25" transform="translate(-151.6 71.59) rotate(-24)"/>
    <rect class="cls-1" x="503.46" y="229.21" width="24.95" height="1.25" transform="translate(-45.78 170.78) rotate(-18.01)"/>
    <rect class="cls-1" x="71.59" y="369.54" width="24.95" height="1.25" transform="translate(-110.33 44.13) rotate(-18.01)"/>
    <rect class="cls-1" x="509.61" y="252.17" width="24.95" height="1.25" transform="translate(-41.14 114.02) rotate(-11.99)"/>
    <rect class="cls-1" x="65.44" y="346.58" width="24.95" height="1.25" transform="translate(-70.46 23.77) rotate(-11.99)"/>
    <rect class="cls-1" x="513.33" y="275.64" width="24.95" height="1.25" transform="translate(-26.05 56.61) rotate(-6.01)"/>
    <rect class="cls-1" x="61.72" y="323.11" width="24.95" height="1.25" transform="translate(-33.51 9.55) rotate(-6.01)"/>
    <rect class="cls-1" x="420.98" y="115.69" width="24.95" height="1.25" transform="translate(84.7 398.77) rotate(-54.03)"/>
    <rect class="cls-1" x="154.07" y="483.06" width="24.95" height="1.25" transform="translate(-322.72 334.34) rotate(-54.03)"/>
    <rect class="cls-1" x="439.45" y="130.65" width="24.95" height="1.25" transform="translate(52.01 379.34) rotate(-48.01)"/>
    <rect class="cls-1" x="135.6" y="468.1" width="24.95" height="1.25" transform="translate(-299.37 265.2) rotate(-48.01)"/>
    <rect class="cls-1" x="456.25" y="147.45" width="24.95" height="1.25" transform="translate(21.17 351.37) rotate(-41.96)"/>
    <rect class="cls-1" x="118.8" y="451.3" width="24.95" height="1.25" transform="translate(-268.51 203.64) rotate(-41.96)"/>
    <rect class="cls-1" x="471.21" y="165.92" width="24.95" height="1.25" transform="translate(-5.58 315.89) rotate(-35.97)"/>
    <rect class="cls-1" x="103.84" y="432.83" width="24.95" height="1.25" transform="translate(-232.44 151) rotate(-35.97)"/>
    <rect class="cls-1" x="207.03" y="80.11" width="1.25" height="24.95" transform="translate(-19.7 92.46) rotate(-24)"/>
    <rect class="cls-1" x="432.83" y="471.21" width="1.25" height="24.95" transform="translate(-201.52 347.14) rotate(-36)"/>
    <rect class="cls-1" x="299.38" y="60.48" width="1.25" height="24.95"/>
    <rect class="cls-1" x="299.38" y="514.57" width="1.25" height="24.95"/>
    <rect class="cls-1" x="412.9" y="484.15" width="1.25" height="24.95" transform="translate(-192.91 273.29) rotate(-30)"/>
    <rect class="cls-1" x="185.85" y="90.9" width="1.25" height="24.95" transform="translate(-26.7 107.09) rotate(-30)"/>
    <rect class="cls-1" x="484.15" y="185.85" width="24.95" height="1.25" transform="translate(-26.69 273.4) rotate(-30.01)"/>
    <rect class="cls-1" x="90.9" y="412.9" width="24.95" height="1.25" transform="translate(-192.97 107.15) rotate(-30.01)"/>
    <rect class="cls-1" x="514.57" y="299.38" width="24.95" height="1.25"/>
    <rect class="cls-1" x="60.48" y="299.38" width="24.95" height="1.25"/>
    <rect class="cls-1" x="102.75" y="174" width="1.25" height="24.95" transform="translate(-109.81 182.76) rotate(-60)"/>
    <rect class="cls-1" x="496" y="401.05" width="1.25" height="24.95" transform="translate(-109.81 636.86) rotate(-60)"/>
    <rect class="cls-1" x="401.05" y="102.75" width="24.95" height="1.25" transform="translate(117.3 409.86) rotate(-60.01)"/>
    <rect class="cls-1" x="174" y="496" width="24.95" height="1.25" transform="translate(-336.87 409.91) rotate(-60.01)"/>
  </g>
</svg>