<?xml version="1.0" encoding="UTF-8"?>
<svg id="_레이어_3" data-name="레이어 3" xmlns="http://www.w3.org/2000/svg" viewBox="0 0 600 600">
  <defs>
    <style>
      .cls-1 {
        fill: blue;
      }
    </style>
  </defs>
  <path class="cls-1" d="M304.49,85.43h-8.98s0,200.29,0,200.29c-6.07,1.91-10.48,7.58-10.48,14.28s4.41,12.37,10.48,14.28v35.62s8.98,0,8.98,0v-35.62c6.07-1.91,10.48-7.58,10.48-14.28,0-6.7-4.41-12.37-10.48-14.28V85.43ZM304.49,300c0,2.48-2.01,4.49-4.49,4.49h0c-2.48,0-4.49-2.01-4.49-4.49,0-2.48,2.01-4.49,4.49-4.49h0c2.48,0,4.49,2.01,4.49,4.49Z"/>
</svg>